# xmcd
#
# Track frame offsets:
#	150
#	14350
#	38223
#	76440
#	92611
#	123354
#	139361
#	165312
#	183252
#	199446
#	216732
#	229734
#	250954
#	267365
#	280055
#	298779
#	325887
#
# Disc length: 4701 seconds
#
# Revision: 0
# Processed by: cddbd v1.5.2PL0 Copyright (c) Steve Scherf et al.
# Submitted via: EasyCDDAExtractor 16.0.6.1
#
DISCID=02125b11
DTITLE=Συλλογικός δίσκος - Ρεμπέτικα και άλλα 1
DYEAR=2010
DGENRE=Ρεμπέτικη
TTITLE0=Κουτουλάκης Γιώργος-Δασκαλάκη Ειρ.-Φρονιμόπουλος Ν. - Οι μπάτσοι (Τούτ
TTITLE0=οι οι μπάτσοι)
TTITLE1=Κουτσαγγελίδης Μάνος - Το ουέστ
TTITLE2=Ζαμπέτας Μιχάλης - Ο μπάρμπας μου ο Παναγής [Γιώργος Στεφανάκης-Ε. Παπ
TTITLE2=αγιαννοπούλου]
TTITLE3=Άνευ ερμηνευτού - Το ζεϊμπέκικο της Ευδοκίας [με τζουρά, Μάνος Λοΐζος]
TTITLE4=Κουτουλάκης Γιώργος-Λίζος Θοδωρής - Θεσσαλονικιά
TTITLE5=Κουτουλάκης Γιώργος - Μάγκας βγήκε για σεργιάνι
TTITLE6=Καπαρού Αργυρώ - Ο μπάρμπας μου ο Παναγής [Τάσος Γκρούς-Ε. Παπαγιαννοπ
TTITLE6=ούλου]
TTITLE7=Κουτουλάκης Γιώργος-χορωδία - Ο Πινόκλης
TTITLE8=Κουτουλάκης Γιώργος-χορωδία - Όσο βαριά είν' τα σίδερα
TTITLE9=Κουτσαγγελίδης Μάνος - Κόνιαλι [κανονάκι Γ. Κουτσαγγελίδης]
TTITLE10=Άνευ ερμηνευτού - Το ζεϊμπέκικο της Ευδοκίας [μπ. Μαν. Καραντίνης, Μά
TTITLE10=νος Λοΐζος]
TTITLE11=Κουτουλάκης Γιώργος-χορωδία - Η άτακτη
TTITLE12=Ζερλεντές Θανάσης - Γαϊτανοφρυδούσα
TTITLE13=Χορωδία - Το ζεϊμπέκικο της Ευδοκίας-Μη μού ξαναφύγεις πια
TTITLE14=Στίγκα Θεοδωσία-χορωδία - Τα νιάτα τα μπερμπάντικα
TTITLE15=Άνευ ερμηνευτού - Ταξίμι καμηλιέρικο [μπ. Γ. Κουτουλάκης]
TTITLE16=Μουσταΐρας Γιώργος - Η προσευχή του μάγκα (Θεέ μου μεγ..)[Αν. Αϊνίτης
TTITLE16=ανώνυμος]
EXTD=
EXTT0=
EXTT1=
EXTT2=
EXTT3=
EXTT4=
EXTT5=
EXTT6=
EXTT7=
EXTT8=
EXTT9=
EXTT10=
EXTT11=
EXTT12=
EXTT13=
EXTT14=
EXTT15=
EXTT16=
PLAYORDER=
